<svg width="294" height="60" viewBox="0 0 294 60" fill="none" xmlns="http://www.w3.org/2000/svg">
<path d="M19.6875 47.5208C15.8802 47.5208 12.4792 46.7656 9.47917 45.25C6.48958 43.7396 4.16667 41.6354 2.5 38.9375C0.833333 36.2291 0 33.1666 0 29.75C0 26.3333 0.833333 23.2864 2.5 20.6041C4.16667 17.9271 6.48958 15.8333 9.47917 14.3333C12.4792 12.8333 15.8802 12.0833 19.6875 12.0833C23.5625 12.0833 26.9063 12.9166 29.7292 14.5833C32.5625 16.25 34.5677 18.5625 35.75 21.5208L26.4583 26.2708C24.901 23.1875 22.625 21.6458 19.625 21.6458C17.4687 21.6458 15.6875 22.3646 14.2708 23.7916C12.8542 25.2239 12.1458 27.2083 12.1458 29.75C12.1458 32.3229 12.8542 34.3333 14.2708 35.7916C15.6875 37.25 17.4687 37.9791 19.625 37.9791C22.625 37.9791 24.901 36.4375 26.4583 33.3541L35.75 38.1041C34.5677 41.0521 32.5625 43.3541 29.7292 45.0208C26.9063 46.6875 23.5625 47.5208 19.6875 47.5208Z" fill="white"/>
<path d="M33.8555 0H45.8972V46.9583H33.8555V0Z" fill="white"/>
<path d="M64.4395 47.5208C60.7572 47.5208 57.4395 46.7656 54.4811 45.25C51.5332 43.7396 49.2311 41.6354 47.5645 38.9375C45.8978 36.2291 45.0645 33.1666 45.0645 29.75C45.0645 26.375 45.8978 23.3437 47.5645 20.6458C49.2311 17.9375 51.528 15.8333 54.4603 14.3333C57.3874 12.8333 60.7155 12.0833 64.4395 12.0833C68.1478 12.0833 71.4707 12.8333 74.4186 14.3333C77.377 15.8333 79.6738 17.9271 81.3145 20.6041C82.9655 23.2864 83.7936 26.3333 83.7936 29.75C83.7936 33.1666 82.9655 36.2291 81.3145 38.9375C79.6738 41.6354 77.377 43.7396 74.4186 45.25C71.4707 46.7656 68.1478 47.5208 64.4395 47.5208ZM64.4395 37.9791C66.5488 37.9791 68.278 37.25 69.627 35.7916C70.9707 34.3333 71.6478 32.3229 71.6478 29.75C71.6478 27.2083 70.9707 25.2239 69.627 23.7916C68.278 22.3646 66.5488 21.6458 64.4395 21.6458C62.3249 21.6458 60.5905 22.3646 59.2311 23.7916C57.8822 25.2239 57.2103 27.2083 57.2103 29.75C57.2103 32.3229 57.8822 34.3333 59.2311 35.7916C60.5905 37.25 62.3249 37.9791 64.4395 37.9791Z" fill="white"/>
<path d="M118.991 12.6458V46.9583H107.532V43.2916C106.267 44.6823 104.746 45.7396 102.97 46.4583C101.204 47.1666 99.3293 47.5208 97.3449 47.5208C92.9126 47.5208 89.3762 46.2187 86.7408 43.6041C84.1001 40.9948 82.7824 37.0729 82.7824 31.8333V12.6458H94.8033V29.875C94.8033 32.4479 95.2876 34.3229 96.2616 35.5C97.2304 36.6823 98.647 37.2708 100.512 37.2708C102.413 37.2708 103.96 36.6146 105.157 35.2916C106.366 33.9583 106.97 31.9166 106.97 29.1666V12.6458H118.991Z" fill="white"/>
<path d="M156.709 0V46.9583H145.25V43.5417C143.011 46.1979 139.656 47.5208 135.188 47.5208C132.063 47.5208 129.214 46.8021 126.646 45.3542C124.073 43.8958 122.042 41.8229 120.542 39.125C119.042 36.4167 118.292 33.2917 118.292 29.75C118.292 26.1979 119.042 23.0833 120.542 20.4167C122.042 17.7396 124.073 15.6823 126.646 14.25C129.214 12.8073 132.063 12.0833 135.188 12.0833C139.281 12.0833 142.448 13.2656 144.688 15.625V0H156.709ZM137.729 37.9792C139.797 37.9792 141.505 37.25 142.854 35.7917C144.198 34.3333 144.875 32.3229 144.875 29.75C144.875 27.2083 144.209 25.224 142.875 23.7917C141.552 22.3646 139.839 21.6458 137.729 21.6458C135.615 21.6458 133.88 22.3646 132.521 23.7917C131.172 25.224 130.5 27.2083 130.5 29.75C130.5 32.3229 131.172 34.3333 132.521 35.7917C133.88 37.25 135.615 37.9792 137.729 37.9792Z" fill="white"/>
<path d="M194.869 12.6458V40.6875C194.869 47.0625 193.139 51.8385 189.681 55.0208C186.223 58.2135 181.244 59.8125 174.744 59.8125C171.369 59.8125 168.202 59.4271 165.244 58.6666C162.296 57.901 159.79 56.7812 157.723 55.3125L162.098 46.8958C163.483 48.0312 165.244 48.9271 167.369 49.5833C169.504 50.2344 171.608 50.5625 173.681 50.5625C176.848 50.5625 179.165 49.8646 180.639 48.4791C182.108 47.0885 182.848 45.0208 182.848 42.2708V41.1458C180.525 43.8437 177.129 45.1875 172.66 45.1875C169.619 45.1875 166.811 44.5 164.244 43.125C161.671 41.75 159.624 39.8125 158.098 37.3125C156.582 34.8021 155.827 31.8958 155.827 28.6041C155.827 25.3541 156.582 22.4791 158.098 19.9791C159.624 17.4687 161.671 15.5208 164.244 14.1458C166.811 12.7708 169.619 12.0833 172.66 12.0833C177.561 12.0833 181.15 13.6666 183.431 16.8333V12.6458H194.869ZM175.514 35.625C177.665 35.625 179.441 34.9739 180.848 33.6666C182.264 32.3646 182.973 30.6771 182.973 28.6041C182.973 26.5364 182.275 24.8646 180.889 23.5833C179.499 22.2916 177.707 21.6458 175.514 21.6458C173.316 21.6458 171.514 22.2916 170.098 23.5833C168.681 24.8646 167.973 26.5364 167.973 28.6041C167.973 30.6771 168.686 32.3646 170.119 33.6666C171.561 34.9739 173.358 35.625 175.514 35.625Z" fill="white"/>
<path d="M210.763 12.0833C216.456 12.0833 220.805 13.3854 223.805 15.9791C226.805 18.5781 228.305 22.5573 228.305 27.9166V46.9583H217.097V42.5208C215.357 45.8541 211.982 47.5208 206.972 47.5208C204.305 47.5208 201.998 47.0625 200.055 46.1458C198.123 45.2187 196.659 43.9583 195.659 42.375C194.67 40.7916 194.18 38.9896 194.18 36.9583C194.18 33.7083 195.42 31.1875 197.909 29.3958C200.409 27.6041 204.248 26.7083 209.43 26.7083H216.263C216.055 23.0833 213.628 21.2708 208.992 21.2708C207.352 21.2708 205.685 21.5364 203.992 22.0625C202.31 22.5937 200.873 23.3125 199.68 24.2291L195.638 16.0625C197.539 14.8021 199.852 13.8229 202.576 13.125C205.295 12.4323 208.024 12.0833 210.763 12.0833ZM210.326 39.9375C211.711 39.9375 212.935 39.6041 213.992 38.9375C215.045 38.2604 215.805 37.2604 216.263 35.9375V32.9791H211.076C207.576 32.9791 205.826 34.1406 205.826 36.4583C205.826 37.5156 206.227 38.3646 207.034 39C207.836 39.625 208.935 39.9375 210.326 39.9375Z" fill="white"/>
<path d="M259.305 37.9791V46.9583H227.659V39.875L243.555 21.5833H228.118V12.6458H258.68V19.6875L242.784 37.9791H259.305Z" fill="white"/>
<path d="M293.228 29.875C293.228 29.9583 293.165 30.9531 293.04 32.8541H268.103C268.613 34.6198 269.592 35.9791 271.04 36.9375C272.499 37.8854 274.322 38.3541 276.519 38.3541C278.17 38.3541 279.592 38.125 280.79 37.6666C281.999 37.1979 283.212 36.4323 284.436 35.375L290.769 41.9583C287.436 45.6666 282.561 47.5208 276.144 47.5208C272.129 47.5208 268.603 46.7656 265.561 45.25C262.53 43.7396 260.186 41.6354 258.519 38.9375C256.853 36.2291 256.019 33.1666 256.019 29.75C256.019 26.375 256.832 23.3489 258.457 20.6666C260.082 17.9896 262.322 15.8906 265.186 14.375C268.061 12.8489 271.29 12.0833 274.874 12.0833C278.29 12.0833 281.384 12.7916 284.165 14.2083C286.957 15.625 289.165 17.6771 290.79 20.3541C292.415 23.0208 293.228 26.1979 293.228 29.875ZM274.936 20.625C273.087 20.625 271.54 21.1562 270.29 22.2083C269.04 23.2656 268.249 24.7031 267.915 26.5208H281.978C281.629 24.7031 280.832 23.2656 279.582 22.2083C278.342 21.1562 276.795 20.625 274.936 20.625Z" fill="white"/>
<mask id="mask0_1_112" style="mask-type:luminance" maskUnits="userSpaceOnUse" x="110" y="12" width="20" height="35">
<path d="M110.016 12.9423H129.912V46.9996H110.016V12.9423Z" fill="white"/>
</mask>
<g mask="url(#mask0_1_112)">
<path d="M110.016 12.9423H129.912V46.9788H110.016V12.9423Z" fill="white"/>
</g>
<mask id="mask1_1_112" style="mask-type:luminance" maskUnits="userSpaceOnUse" x="116" y="9" width="16" height="43">
<path d="M116.641 9.02045H131.307V51.6871H116.641V9.02045Z" fill="white"/>
</mask>
<g mask="url(#mask1_1_112)">
<mask id="mask2_1_112" style="mask-type:luminance" maskUnits="userSpaceOnUse" x="110" y="9" width="30" height="42">
<path d="M110.021 15.5517L127.995 9.40588L139.969 44.4111L121.995 50.5621L110.021 15.5517Z" fill="white"/>
</mask>
<g mask="url(#mask2_1_112)">
<mask id="mask3_1_112" style="mask-type:luminance" maskUnits="userSpaceOnUse" x="110" y="9" width="30" height="42">
<path d="M110.021 15.5517L127.995 9.40588L139.969 44.4111L121.995 50.5621L110.021 15.5517Z" fill="white"/>
</mask>
<g mask="url(#mask3_1_112)">
<path d="M118.828 12.5413L127.787 9.47876L124.797 23.9423L130.052 22.1454L121.964 50.4579L123.005 30.2913L117.386 32.5256L118.828 12.5413Z" fill="black"/>
</g>
</g>
</g>
</svg>
